G75*
%MOIN*%
%OFA0B0*%
%FSLAX25Y25*%
%IPPOS*%
%LPD*%
%AMOC8*
5,1,8,0,0,1.08239X$1,22.5*
%
%ADD10C,0.00300*%
%ADD11C,0.00500*%
D10*
X0014142Y0341898D02*
X0015753Y0341898D01*
X0014948Y0341898D02*
X0014948Y0344798D01*
X0014142Y0344154D01*
X0014572Y0359221D02*
X0012961Y0359221D01*
X0014330Y0360832D01*
X0013847Y0362120D02*
X0013788Y0362118D01*
X0013730Y0362113D01*
X0013672Y0362103D01*
X0013615Y0362091D01*
X0013559Y0362074D01*
X0013504Y0362055D01*
X0013450Y0362031D01*
X0013398Y0362005D01*
X0013348Y0361975D01*
X0013299Y0361942D01*
X0013253Y0361906D01*
X0013209Y0361867D01*
X0013168Y0361826D01*
X0013129Y0361782D01*
X0013093Y0361736D01*
X0013061Y0361687D01*
X0013031Y0361637D01*
X0013004Y0361585D01*
X0012981Y0361531D01*
X0012961Y0361476D01*
X0014330Y0360832D02*
X0014367Y0360869D01*
X0014401Y0360909D01*
X0014433Y0360951D01*
X0014461Y0360996D01*
X0014487Y0361042D01*
X0014509Y0361089D01*
X0014528Y0361138D01*
X0014544Y0361188D01*
X0014556Y0361239D01*
X0014565Y0361291D01*
X0014570Y0361343D01*
X0014572Y0361396D01*
X0014570Y0361448D01*
X0014565Y0361499D01*
X0014555Y0361550D01*
X0014543Y0361600D01*
X0014526Y0361649D01*
X0014506Y0361697D01*
X0014483Y0361743D01*
X0014457Y0361788D01*
X0014427Y0361830D01*
X0014395Y0361871D01*
X0014360Y0361909D01*
X0014322Y0361944D01*
X0014281Y0361976D01*
X0014239Y0362006D01*
X0014194Y0362032D01*
X0014148Y0362055D01*
X0014100Y0362075D01*
X0014051Y0362092D01*
X0014001Y0362104D01*
X0013950Y0362114D01*
X0013899Y0362119D01*
X0013847Y0362121D01*
X0015841Y0360832D02*
X0015841Y0360026D01*
X0015843Y0359971D01*
X0015849Y0359916D01*
X0015858Y0359862D01*
X0015871Y0359809D01*
X0015888Y0359756D01*
X0015908Y0359705D01*
X0015931Y0359655D01*
X0015958Y0359607D01*
X0015989Y0359561D01*
X0016022Y0359517D01*
X0016058Y0359476D01*
X0016097Y0359437D01*
X0016138Y0359401D01*
X0016182Y0359368D01*
X0016228Y0359337D01*
X0016276Y0359310D01*
X0016326Y0359287D01*
X0016377Y0359267D01*
X0016430Y0359250D01*
X0016483Y0359237D01*
X0016537Y0359228D01*
X0016592Y0359222D01*
X0016647Y0359220D01*
X0016702Y0359222D01*
X0016757Y0359228D01*
X0016811Y0359237D01*
X0016864Y0359250D01*
X0016917Y0359267D01*
X0016968Y0359287D01*
X0017018Y0359310D01*
X0017066Y0359337D01*
X0017112Y0359368D01*
X0017156Y0359401D01*
X0017197Y0359437D01*
X0017236Y0359476D01*
X0017272Y0359517D01*
X0017305Y0359561D01*
X0017336Y0359607D01*
X0017363Y0359655D01*
X0017386Y0359705D01*
X0017406Y0359756D01*
X0017423Y0359809D01*
X0017436Y0359862D01*
X0017445Y0359916D01*
X0017451Y0359971D01*
X0017453Y0360026D01*
X0017452Y0360026D02*
X0017452Y0360188D01*
X0017450Y0360236D01*
X0017445Y0360284D01*
X0017436Y0360331D01*
X0017423Y0360378D01*
X0017407Y0360423D01*
X0017388Y0360467D01*
X0017366Y0360510D01*
X0017340Y0360551D01*
X0017311Y0360590D01*
X0017280Y0360626D01*
X0017246Y0360660D01*
X0017210Y0360691D01*
X0017171Y0360720D01*
X0017130Y0360746D01*
X0017087Y0360768D01*
X0017043Y0360787D01*
X0016998Y0360803D01*
X0016951Y0360816D01*
X0016904Y0360825D01*
X0016856Y0360830D01*
X0016808Y0360832D01*
X0015841Y0360832D01*
X0015843Y0360902D01*
X0015849Y0360971D01*
X0015858Y0361041D01*
X0015871Y0361109D01*
X0015888Y0361177D01*
X0015908Y0361244D01*
X0015933Y0361309D01*
X0015960Y0361373D01*
X0015991Y0361436D01*
X0016026Y0361497D01*
X0016063Y0361555D01*
X0016104Y0361612D01*
X0016148Y0361666D01*
X0016194Y0361718D01*
X0016244Y0361768D01*
X0016296Y0361814D01*
X0016350Y0361858D01*
X0016407Y0361899D01*
X0016465Y0361936D01*
X0016526Y0361971D01*
X0016589Y0362002D01*
X0016653Y0362029D01*
X0016718Y0362054D01*
X0016785Y0362074D01*
X0016853Y0362091D01*
X0016921Y0362104D01*
X0016991Y0362113D01*
X0017060Y0362119D01*
X0017130Y0362121D01*
X0031125Y0347554D02*
X0032092Y0347554D01*
X0031125Y0347553D02*
X0031074Y0347551D01*
X0031024Y0347545D01*
X0030975Y0347535D01*
X0030926Y0347521D01*
X0030879Y0347504D01*
X0030833Y0347483D01*
X0030789Y0347458D01*
X0030746Y0347430D01*
X0030707Y0347399D01*
X0030670Y0347364D01*
X0030635Y0347327D01*
X0030604Y0347288D01*
X0030576Y0347245D01*
X0030551Y0347201D01*
X0030530Y0347155D01*
X0030513Y0347108D01*
X0030499Y0347059D01*
X0030489Y0347010D01*
X0030483Y0346960D01*
X0030481Y0346909D01*
X0030481Y0345298D01*
X0030483Y0345250D01*
X0030488Y0345202D01*
X0030497Y0345155D01*
X0030510Y0345108D01*
X0030526Y0345063D01*
X0030545Y0345019D01*
X0030567Y0344976D01*
X0030593Y0344935D01*
X0030622Y0344896D01*
X0030653Y0344860D01*
X0030687Y0344826D01*
X0030723Y0344795D01*
X0030762Y0344766D01*
X0030803Y0344740D01*
X0030846Y0344718D01*
X0030890Y0344699D01*
X0030935Y0344683D01*
X0030982Y0344670D01*
X0031029Y0344661D01*
X0031077Y0344656D01*
X0031125Y0344654D01*
X0032092Y0344654D01*
X0032092Y0346265D01*
X0031608Y0346265D01*
X0033553Y0347554D02*
X0035164Y0344654D01*
X0035164Y0347554D01*
X0036625Y0347554D02*
X0036625Y0344654D01*
X0037430Y0344654D01*
X0037430Y0344653D02*
X0037485Y0344655D01*
X0037540Y0344661D01*
X0037594Y0344670D01*
X0037647Y0344683D01*
X0037700Y0344700D01*
X0037751Y0344720D01*
X0037801Y0344743D01*
X0037849Y0344770D01*
X0037895Y0344801D01*
X0037939Y0344834D01*
X0037980Y0344870D01*
X0038019Y0344909D01*
X0038055Y0344950D01*
X0038088Y0344994D01*
X0038119Y0345040D01*
X0038146Y0345088D01*
X0038169Y0345138D01*
X0038189Y0345189D01*
X0038206Y0345242D01*
X0038219Y0345295D01*
X0038228Y0345349D01*
X0038234Y0345404D01*
X0038236Y0345459D01*
X0038236Y0346748D01*
X0038234Y0346803D01*
X0038228Y0346858D01*
X0038219Y0346912D01*
X0038206Y0346965D01*
X0038189Y0347018D01*
X0038169Y0347069D01*
X0038146Y0347119D01*
X0038119Y0347167D01*
X0038088Y0347213D01*
X0038055Y0347257D01*
X0038019Y0347298D01*
X0037980Y0347337D01*
X0037939Y0347373D01*
X0037895Y0347406D01*
X0037849Y0347437D01*
X0037801Y0347464D01*
X0037751Y0347487D01*
X0037700Y0347507D01*
X0037647Y0347524D01*
X0037594Y0347537D01*
X0037540Y0347546D01*
X0037485Y0347552D01*
X0037430Y0347554D01*
X0036625Y0347554D01*
X0033553Y0347554D02*
X0033553Y0344654D01*
X0100953Y0348394D02*
X0101981Y0348394D01*
X0102044Y0348396D01*
X0102107Y0348402D01*
X0102170Y0348412D01*
X0102232Y0348425D01*
X0102293Y0348442D01*
X0102352Y0348463D01*
X0102411Y0348488D01*
X0102467Y0348516D01*
X0102522Y0348548D01*
X0102575Y0348583D01*
X0102625Y0348621D01*
X0102674Y0348662D01*
X0102719Y0348706D01*
X0102762Y0348753D01*
X0102801Y0348802D01*
X0102838Y0348854D01*
X0102871Y0348908D01*
X0102901Y0348964D01*
X0102928Y0349021D01*
X0102951Y0349080D01*
X0102970Y0349141D01*
X0102985Y0349202D01*
X0102997Y0349264D01*
X0103005Y0349327D01*
X0103009Y0349390D01*
X0103009Y0349454D01*
X0103005Y0349517D01*
X0102997Y0349580D01*
X0102985Y0349642D01*
X0102970Y0349703D01*
X0102951Y0349764D01*
X0102928Y0349823D01*
X0102901Y0349880D01*
X0102871Y0349936D01*
X0102838Y0349990D01*
X0102801Y0350042D01*
X0102762Y0350091D01*
X0102719Y0350138D01*
X0102674Y0350182D01*
X0102625Y0350223D01*
X0102575Y0350261D01*
X0102522Y0350296D01*
X0102467Y0350328D01*
X0102411Y0350356D01*
X0102352Y0350381D01*
X0102293Y0350402D01*
X0102232Y0350419D01*
X0102170Y0350432D01*
X0102107Y0350442D01*
X0102044Y0350448D01*
X0101981Y0350450D01*
X0102186Y0350450D02*
X0101364Y0350450D01*
X0102186Y0350450D02*
X0102242Y0350452D01*
X0102298Y0350458D01*
X0102353Y0350467D01*
X0102408Y0350480D01*
X0102461Y0350497D01*
X0102513Y0350518D01*
X0102564Y0350542D01*
X0102613Y0350570D01*
X0102660Y0350600D01*
X0102705Y0350634D01*
X0102747Y0350671D01*
X0102787Y0350711D01*
X0102824Y0350753D01*
X0102858Y0350798D01*
X0102888Y0350845D01*
X0102916Y0350894D01*
X0102940Y0350945D01*
X0102961Y0350997D01*
X0102978Y0351050D01*
X0102991Y0351105D01*
X0103000Y0351160D01*
X0103006Y0351216D01*
X0103008Y0351272D01*
X0103006Y0351328D01*
X0103000Y0351384D01*
X0102991Y0351439D01*
X0102978Y0351494D01*
X0102961Y0351547D01*
X0102940Y0351599D01*
X0102916Y0351650D01*
X0102888Y0351699D01*
X0102858Y0351746D01*
X0102824Y0351791D01*
X0102787Y0351833D01*
X0102747Y0351873D01*
X0102705Y0351910D01*
X0102660Y0351944D01*
X0102613Y0351974D01*
X0102564Y0352002D01*
X0102513Y0352026D01*
X0102461Y0352047D01*
X0102408Y0352064D01*
X0102353Y0352077D01*
X0102298Y0352086D01*
X0102242Y0352092D01*
X0102186Y0352094D01*
X0100953Y0352094D01*
X0104399Y0350861D02*
X0105221Y0348394D01*
X0106043Y0350861D01*
X0107844Y0350450D02*
X0108666Y0350450D01*
X0108722Y0350452D01*
X0108778Y0350458D01*
X0108833Y0350467D01*
X0108888Y0350480D01*
X0108941Y0350497D01*
X0108993Y0350518D01*
X0109044Y0350542D01*
X0109093Y0350570D01*
X0109140Y0350600D01*
X0109185Y0350634D01*
X0109227Y0350671D01*
X0109267Y0350711D01*
X0109304Y0350753D01*
X0109338Y0350798D01*
X0109368Y0350845D01*
X0109396Y0350894D01*
X0109420Y0350945D01*
X0109441Y0350997D01*
X0109458Y0351050D01*
X0109471Y0351105D01*
X0109480Y0351160D01*
X0109486Y0351216D01*
X0109488Y0351272D01*
X0109486Y0351328D01*
X0109480Y0351384D01*
X0109471Y0351439D01*
X0109458Y0351494D01*
X0109441Y0351547D01*
X0109420Y0351599D01*
X0109396Y0351650D01*
X0109368Y0351699D01*
X0109338Y0351746D01*
X0109304Y0351791D01*
X0109267Y0351833D01*
X0109227Y0351873D01*
X0109185Y0351910D01*
X0109140Y0351944D01*
X0109093Y0351974D01*
X0109044Y0352002D01*
X0108993Y0352026D01*
X0108941Y0352047D01*
X0108888Y0352064D01*
X0108833Y0352077D01*
X0108778Y0352086D01*
X0108722Y0352092D01*
X0108666Y0352094D01*
X0107433Y0352094D01*
X0108461Y0350450D02*
X0108524Y0350448D01*
X0108587Y0350442D01*
X0108650Y0350432D01*
X0108712Y0350419D01*
X0108773Y0350402D01*
X0108832Y0350381D01*
X0108891Y0350356D01*
X0108947Y0350328D01*
X0109002Y0350296D01*
X0109055Y0350261D01*
X0109105Y0350223D01*
X0109154Y0350182D01*
X0109199Y0350138D01*
X0109242Y0350091D01*
X0109281Y0350042D01*
X0109318Y0349990D01*
X0109351Y0349936D01*
X0109381Y0349880D01*
X0109408Y0349823D01*
X0109431Y0349764D01*
X0109450Y0349703D01*
X0109465Y0349642D01*
X0109477Y0349580D01*
X0109485Y0349517D01*
X0109489Y0349454D01*
X0109489Y0349390D01*
X0109485Y0349327D01*
X0109477Y0349264D01*
X0109465Y0349202D01*
X0109450Y0349141D01*
X0109431Y0349080D01*
X0109408Y0349021D01*
X0109381Y0348964D01*
X0109351Y0348908D01*
X0109318Y0348854D01*
X0109281Y0348802D01*
X0109242Y0348753D01*
X0109199Y0348706D01*
X0109154Y0348662D01*
X0109105Y0348621D01*
X0109055Y0348583D01*
X0109002Y0348548D01*
X0108947Y0348516D01*
X0108891Y0348488D01*
X0108832Y0348463D01*
X0108773Y0348442D01*
X0108712Y0348425D01*
X0108650Y0348412D01*
X0108587Y0348402D01*
X0108524Y0348396D01*
X0108461Y0348394D01*
X0107433Y0348394D01*
X0248394Y0341898D02*
X0250005Y0341898D01*
X0251274Y0341898D02*
X0252241Y0341898D01*
X0252289Y0341900D01*
X0252337Y0341905D01*
X0252384Y0341914D01*
X0252431Y0341927D01*
X0252476Y0341943D01*
X0252520Y0341962D01*
X0252563Y0341984D01*
X0252604Y0342010D01*
X0252643Y0342039D01*
X0252679Y0342070D01*
X0252713Y0342104D01*
X0252744Y0342140D01*
X0252773Y0342179D01*
X0252799Y0342220D01*
X0252821Y0342263D01*
X0252840Y0342307D01*
X0252856Y0342352D01*
X0252869Y0342399D01*
X0252878Y0342446D01*
X0252883Y0342494D01*
X0252885Y0342542D01*
X0252885Y0342865D01*
X0252883Y0342913D01*
X0252878Y0342961D01*
X0252869Y0343008D01*
X0252856Y0343055D01*
X0252840Y0343100D01*
X0252821Y0343144D01*
X0252799Y0343187D01*
X0252773Y0343228D01*
X0252744Y0343267D01*
X0252713Y0343303D01*
X0252679Y0343337D01*
X0252643Y0343368D01*
X0252604Y0343397D01*
X0252563Y0343423D01*
X0252520Y0343445D01*
X0252476Y0343464D01*
X0252431Y0343480D01*
X0252384Y0343493D01*
X0252337Y0343502D01*
X0252289Y0343507D01*
X0252241Y0343509D01*
X0251274Y0343509D01*
X0251274Y0344798D01*
X0252885Y0344798D01*
X0249764Y0343509D02*
X0248394Y0341898D01*
X0248394Y0344154D02*
X0248414Y0344209D01*
X0248437Y0344263D01*
X0248464Y0344315D01*
X0248494Y0344365D01*
X0248526Y0344414D01*
X0248562Y0344460D01*
X0248601Y0344504D01*
X0248642Y0344545D01*
X0248686Y0344584D01*
X0248732Y0344620D01*
X0248781Y0344653D01*
X0248831Y0344683D01*
X0248883Y0344709D01*
X0248937Y0344733D01*
X0248992Y0344752D01*
X0249048Y0344769D01*
X0249105Y0344781D01*
X0249163Y0344791D01*
X0249221Y0344796D01*
X0249280Y0344798D01*
X0249332Y0344796D01*
X0249383Y0344791D01*
X0249434Y0344781D01*
X0249484Y0344769D01*
X0249533Y0344752D01*
X0249581Y0344732D01*
X0249627Y0344709D01*
X0249672Y0344683D01*
X0249714Y0344653D01*
X0249755Y0344621D01*
X0249793Y0344586D01*
X0249828Y0344548D01*
X0249860Y0344507D01*
X0249890Y0344465D01*
X0249916Y0344420D01*
X0249939Y0344374D01*
X0249959Y0344326D01*
X0249976Y0344277D01*
X0249988Y0344227D01*
X0249998Y0344176D01*
X0250003Y0344125D01*
X0250005Y0344073D01*
X0250003Y0344020D01*
X0249998Y0343968D01*
X0249989Y0343916D01*
X0249977Y0343865D01*
X0249961Y0343815D01*
X0249942Y0343766D01*
X0249920Y0343719D01*
X0249894Y0343673D01*
X0249866Y0343628D01*
X0249834Y0343586D01*
X0249800Y0343546D01*
X0249763Y0343509D01*
X0249361Y0359221D02*
X0248394Y0359221D01*
X0249361Y0359221D02*
X0249409Y0359223D01*
X0249457Y0359228D01*
X0249504Y0359237D01*
X0249551Y0359250D01*
X0249596Y0359266D01*
X0249640Y0359285D01*
X0249683Y0359307D01*
X0249724Y0359333D01*
X0249763Y0359362D01*
X0249799Y0359393D01*
X0249833Y0359427D01*
X0249864Y0359463D01*
X0249893Y0359502D01*
X0249919Y0359543D01*
X0249941Y0359586D01*
X0249960Y0359630D01*
X0249976Y0359675D01*
X0249989Y0359722D01*
X0249998Y0359769D01*
X0250003Y0359817D01*
X0250005Y0359865D01*
X0250005Y0360188D01*
X0250003Y0360236D01*
X0249998Y0360284D01*
X0249989Y0360331D01*
X0249976Y0360378D01*
X0249960Y0360423D01*
X0249941Y0360467D01*
X0249919Y0360510D01*
X0249893Y0360551D01*
X0249864Y0360590D01*
X0249833Y0360626D01*
X0249799Y0360660D01*
X0249763Y0360691D01*
X0249724Y0360720D01*
X0249683Y0360746D01*
X0249640Y0360768D01*
X0249596Y0360787D01*
X0249551Y0360803D01*
X0249504Y0360816D01*
X0249457Y0360825D01*
X0249409Y0360830D01*
X0249361Y0360832D01*
X0248394Y0360832D01*
X0248394Y0362121D01*
X0250005Y0362121D01*
X0252885Y0360671D02*
X0252883Y0360581D01*
X0252878Y0360490D01*
X0252870Y0360401D01*
X0252858Y0360311D01*
X0252842Y0360222D01*
X0252824Y0360134D01*
X0252802Y0360046D01*
X0252777Y0359959D01*
X0252748Y0359874D01*
X0252716Y0359789D01*
X0252681Y0359706D01*
X0252643Y0359624D01*
X0252644Y0359624D02*
X0252627Y0359581D01*
X0252607Y0359539D01*
X0252584Y0359499D01*
X0252558Y0359461D01*
X0252529Y0359425D01*
X0252497Y0359391D01*
X0252463Y0359360D01*
X0252426Y0359332D01*
X0252388Y0359307D01*
X0252347Y0359284D01*
X0252305Y0359265D01*
X0252262Y0359249D01*
X0252217Y0359237D01*
X0252172Y0359228D01*
X0252126Y0359223D01*
X0252080Y0359221D01*
X0252034Y0359223D01*
X0251988Y0359228D01*
X0251943Y0359237D01*
X0251898Y0359249D01*
X0251855Y0359265D01*
X0251813Y0359284D01*
X0251772Y0359307D01*
X0251734Y0359332D01*
X0251697Y0359360D01*
X0251663Y0359391D01*
X0251631Y0359425D01*
X0251602Y0359461D01*
X0251576Y0359499D01*
X0251553Y0359539D01*
X0251533Y0359581D01*
X0251516Y0359624D01*
X0251435Y0359865D02*
X0252724Y0361476D01*
X0252644Y0361718D02*
X0252627Y0361761D01*
X0252607Y0361803D01*
X0252584Y0361843D01*
X0252558Y0361881D01*
X0252529Y0361917D01*
X0252497Y0361951D01*
X0252463Y0361982D01*
X0252426Y0362010D01*
X0252388Y0362035D01*
X0252347Y0362058D01*
X0252305Y0362077D01*
X0252262Y0362093D01*
X0252217Y0362105D01*
X0252172Y0362114D01*
X0252126Y0362119D01*
X0252080Y0362121D01*
X0252034Y0362119D01*
X0251988Y0362114D01*
X0251943Y0362105D01*
X0251898Y0362093D01*
X0251855Y0362077D01*
X0251813Y0362058D01*
X0251772Y0362035D01*
X0251734Y0362010D01*
X0251697Y0361982D01*
X0251663Y0361951D01*
X0251631Y0361917D01*
X0251602Y0361881D01*
X0251576Y0361843D01*
X0251553Y0361803D01*
X0251533Y0361761D01*
X0251516Y0361718D01*
X0252643Y0361718D02*
X0252681Y0361636D01*
X0252716Y0361553D01*
X0252748Y0361468D01*
X0252777Y0361383D01*
X0252802Y0361296D01*
X0252824Y0361208D01*
X0252842Y0361120D01*
X0252858Y0361031D01*
X0252870Y0360941D01*
X0252878Y0360852D01*
X0252883Y0360761D01*
X0252885Y0360671D01*
X0251274Y0360671D02*
X0251276Y0360761D01*
X0251281Y0360852D01*
X0251289Y0360941D01*
X0251301Y0361031D01*
X0251317Y0361120D01*
X0251335Y0361208D01*
X0251357Y0361296D01*
X0251382Y0361383D01*
X0251411Y0361468D01*
X0251443Y0361553D01*
X0251478Y0361636D01*
X0251516Y0361718D01*
X0251274Y0360671D02*
X0251276Y0360581D01*
X0251281Y0360490D01*
X0251289Y0360401D01*
X0251301Y0360311D01*
X0251317Y0360222D01*
X0251335Y0360134D01*
X0251357Y0360046D01*
X0251382Y0359959D01*
X0251411Y0359874D01*
X0251443Y0359789D01*
X0251478Y0359706D01*
X0251516Y0359624D01*
D11*
X0281368Y0301734D02*
X0287468Y0301734D01*
X0281368Y0298345D01*
X0287468Y0298345D01*
X0284757Y0295687D02*
X0283063Y0295687D01*
X0284757Y0295687D02*
X0284757Y0293653D01*
X0284757Y0295686D02*
X0284861Y0295684D01*
X0284965Y0295678D01*
X0285068Y0295668D01*
X0285171Y0295654D01*
X0285273Y0295636D01*
X0285375Y0295615D01*
X0285475Y0295589D01*
X0285575Y0295560D01*
X0285673Y0295526D01*
X0285770Y0295489D01*
X0285866Y0295449D01*
X0285960Y0295405D01*
X0286052Y0295357D01*
X0286142Y0295305D01*
X0286231Y0295251D01*
X0286317Y0295192D01*
X0286400Y0295131D01*
X0286482Y0295067D01*
X0286561Y0294999D01*
X0286637Y0294928D01*
X0286710Y0294855D01*
X0286781Y0294779D01*
X0286848Y0294700D01*
X0286913Y0294618D01*
X0286974Y0294535D01*
X0287033Y0294449D01*
X0287087Y0294360D01*
X0287139Y0294270D01*
X0287186Y0294178D01*
X0287231Y0294084D01*
X0287271Y0293988D01*
X0287308Y0293891D01*
X0287342Y0293793D01*
X0287371Y0293693D01*
X0287397Y0293593D01*
X0287418Y0293491D01*
X0287436Y0293389D01*
X0287450Y0293286D01*
X0287460Y0293183D01*
X0287466Y0293079D01*
X0287468Y0292975D01*
X0283401Y0292298D02*
X0283063Y0292298D01*
X0283401Y0292297D02*
X0283474Y0292299D01*
X0283548Y0292305D01*
X0283620Y0292315D01*
X0283693Y0292329D01*
X0283764Y0292346D01*
X0283834Y0292368D01*
X0283903Y0292393D01*
X0283970Y0292422D01*
X0284036Y0292455D01*
X0284100Y0292491D01*
X0284162Y0292531D01*
X0284222Y0292574D01*
X0284279Y0292620D01*
X0284334Y0292669D01*
X0284385Y0292720D01*
X0284434Y0292775D01*
X0284481Y0292832D01*
X0284523Y0292892D01*
X0284563Y0292954D01*
X0284599Y0293018D01*
X0284632Y0293084D01*
X0284661Y0293151D01*
X0284686Y0293220D01*
X0284708Y0293290D01*
X0284725Y0293362D01*
X0284739Y0293434D01*
X0284749Y0293506D01*
X0284755Y0293580D01*
X0284757Y0293653D01*
X0283063Y0292298D02*
X0282982Y0292300D01*
X0282902Y0292306D01*
X0282822Y0292315D01*
X0282742Y0292329D01*
X0282664Y0292346D01*
X0282586Y0292367D01*
X0282509Y0292391D01*
X0282433Y0292419D01*
X0282359Y0292451D01*
X0282287Y0292486D01*
X0282216Y0292525D01*
X0282147Y0292567D01*
X0282080Y0292612D01*
X0282016Y0292660D01*
X0281954Y0292712D01*
X0281894Y0292766D01*
X0281837Y0292823D01*
X0281783Y0292883D01*
X0281731Y0292945D01*
X0281683Y0293009D01*
X0281638Y0293076D01*
X0281596Y0293145D01*
X0281557Y0293216D01*
X0281522Y0293288D01*
X0281490Y0293362D01*
X0281462Y0293438D01*
X0281438Y0293515D01*
X0281417Y0293593D01*
X0281400Y0293671D01*
X0281386Y0293751D01*
X0281377Y0293831D01*
X0281371Y0293911D01*
X0281369Y0293992D01*
X0281371Y0294073D01*
X0281377Y0294153D01*
X0281386Y0294233D01*
X0281400Y0294313D01*
X0281417Y0294391D01*
X0281438Y0294469D01*
X0281462Y0294546D01*
X0281490Y0294622D01*
X0281522Y0294696D01*
X0281557Y0294768D01*
X0281596Y0294839D01*
X0281638Y0294908D01*
X0281683Y0294975D01*
X0281731Y0295039D01*
X0281783Y0295101D01*
X0281837Y0295161D01*
X0281894Y0295218D01*
X0281954Y0295272D01*
X0282016Y0295324D01*
X0282080Y0295372D01*
X0282147Y0295417D01*
X0282216Y0295459D01*
X0282287Y0295498D01*
X0282359Y0295533D01*
X0282433Y0295565D01*
X0282509Y0295593D01*
X0282586Y0295617D01*
X0282664Y0295638D01*
X0282742Y0295655D01*
X0282822Y0295669D01*
X0282902Y0295678D01*
X0282982Y0295684D01*
X0283063Y0295686D01*
X0282724Y0289834D02*
X0282724Y0286445D01*
X0284079Y0287462D02*
X0281368Y0287462D01*
X0282724Y0289834D02*
X0287468Y0288478D01*
X0286113Y0280875D02*
X0282724Y0280875D01*
X0282653Y0280873D01*
X0282582Y0280868D01*
X0282512Y0280858D01*
X0282442Y0280845D01*
X0282373Y0280829D01*
X0282305Y0280809D01*
X0282238Y0280785D01*
X0282172Y0280758D01*
X0282108Y0280727D01*
X0282046Y0280693D01*
X0281985Y0280656D01*
X0281927Y0280616D01*
X0281871Y0280573D01*
X0281817Y0280527D01*
X0281765Y0280478D01*
X0281716Y0280426D01*
X0281670Y0280372D01*
X0281627Y0280316D01*
X0281587Y0280258D01*
X0281550Y0280197D01*
X0281516Y0280135D01*
X0281485Y0280071D01*
X0281458Y0280005D01*
X0281434Y0279938D01*
X0281414Y0279870D01*
X0281398Y0279801D01*
X0281385Y0279731D01*
X0281375Y0279661D01*
X0281370Y0279590D01*
X0281368Y0279519D01*
X0281368Y0278163D01*
X0281368Y0274875D02*
X0281368Y0273350D01*
X0284418Y0273350D01*
X0283740Y0273350D02*
X0283740Y0274875D01*
X0284418Y0273349D02*
X0284479Y0273351D01*
X0284541Y0273356D01*
X0284601Y0273366D01*
X0284661Y0273379D01*
X0284721Y0273395D01*
X0284779Y0273415D01*
X0284835Y0273439D01*
X0284891Y0273465D01*
X0284944Y0273496D01*
X0284996Y0273529D01*
X0285045Y0273565D01*
X0285092Y0273605D01*
X0285137Y0273647D01*
X0285179Y0273692D01*
X0285219Y0273739D01*
X0285255Y0273788D01*
X0285288Y0273840D01*
X0285319Y0273893D01*
X0285345Y0273949D01*
X0285369Y0274005D01*
X0285389Y0274063D01*
X0285405Y0274123D01*
X0285418Y0274183D01*
X0285428Y0274243D01*
X0285433Y0274305D01*
X0285435Y0274366D01*
X0285435Y0275722D01*
X0283740Y0274875D02*
X0283738Y0274943D01*
X0283732Y0275010D01*
X0283723Y0275077D01*
X0283709Y0275144D01*
X0283692Y0275209D01*
X0283671Y0275274D01*
X0283646Y0275337D01*
X0283618Y0275398D01*
X0283587Y0275458D01*
X0283552Y0275516D01*
X0283513Y0275572D01*
X0283472Y0275626D01*
X0283428Y0275677D01*
X0283381Y0275726D01*
X0283331Y0275771D01*
X0283278Y0275814D01*
X0283223Y0275854D01*
X0283166Y0275891D01*
X0283107Y0275924D01*
X0283047Y0275954D01*
X0282984Y0275980D01*
X0282920Y0276003D01*
X0282856Y0276022D01*
X0282790Y0276037D01*
X0282723Y0276049D01*
X0282655Y0276057D01*
X0282588Y0276061D01*
X0282520Y0276061D01*
X0282453Y0276057D01*
X0282385Y0276049D01*
X0282318Y0276037D01*
X0282252Y0276022D01*
X0282188Y0276003D01*
X0282124Y0275980D01*
X0282061Y0275954D01*
X0282001Y0275924D01*
X0281942Y0275891D01*
X0281885Y0275854D01*
X0281830Y0275814D01*
X0281777Y0275771D01*
X0281727Y0275726D01*
X0281680Y0275677D01*
X0281636Y0275626D01*
X0281595Y0275572D01*
X0281556Y0275516D01*
X0281521Y0275458D01*
X0281490Y0275398D01*
X0281462Y0275337D01*
X0281437Y0275274D01*
X0281416Y0275209D01*
X0281399Y0275144D01*
X0281385Y0275077D01*
X0281376Y0275010D01*
X0281370Y0274943D01*
X0281368Y0274875D01*
X0281368Y0270540D02*
X0285435Y0270540D01*
X0285435Y0268507D01*
X0284757Y0268507D01*
X0285435Y0267154D02*
X0285435Y0265120D01*
X0287468Y0266476D02*
X0282385Y0266476D01*
X0282324Y0266474D01*
X0282262Y0266469D01*
X0282202Y0266459D01*
X0282142Y0266446D01*
X0282082Y0266430D01*
X0282024Y0266410D01*
X0281968Y0266386D01*
X0281912Y0266360D01*
X0281859Y0266329D01*
X0281807Y0266296D01*
X0281758Y0266260D01*
X0281711Y0266220D01*
X0281666Y0266178D01*
X0281624Y0266133D01*
X0281584Y0266086D01*
X0281548Y0266037D01*
X0281515Y0265985D01*
X0281484Y0265932D01*
X0281458Y0265876D01*
X0281434Y0265820D01*
X0281414Y0265762D01*
X0281398Y0265702D01*
X0281385Y0265642D01*
X0281375Y0265582D01*
X0281370Y0265520D01*
X0281368Y0265459D01*
X0281368Y0265120D01*
X0281368Y0259561D02*
X0287468Y0259561D01*
X0287468Y0257867D01*
X0287466Y0257786D01*
X0287460Y0257706D01*
X0287451Y0257626D01*
X0287437Y0257546D01*
X0287420Y0257468D01*
X0287399Y0257390D01*
X0287375Y0257313D01*
X0287347Y0257237D01*
X0287315Y0257163D01*
X0287280Y0257091D01*
X0287241Y0257020D01*
X0287199Y0256951D01*
X0287154Y0256884D01*
X0287106Y0256820D01*
X0287054Y0256758D01*
X0287000Y0256698D01*
X0286943Y0256641D01*
X0286883Y0256587D01*
X0286821Y0256535D01*
X0286757Y0256487D01*
X0286690Y0256442D01*
X0286621Y0256400D01*
X0286550Y0256361D01*
X0286478Y0256326D01*
X0286404Y0256294D01*
X0286328Y0256266D01*
X0286251Y0256242D01*
X0286173Y0256221D01*
X0286095Y0256204D01*
X0286015Y0256190D01*
X0285935Y0256181D01*
X0285855Y0256175D01*
X0285774Y0256173D01*
X0285693Y0256175D01*
X0285613Y0256181D01*
X0285533Y0256190D01*
X0285453Y0256204D01*
X0285375Y0256221D01*
X0285297Y0256242D01*
X0285220Y0256266D01*
X0285144Y0256294D01*
X0285070Y0256326D01*
X0284998Y0256361D01*
X0284927Y0256400D01*
X0284858Y0256442D01*
X0284791Y0256487D01*
X0284727Y0256535D01*
X0284665Y0256587D01*
X0284605Y0256641D01*
X0284548Y0256698D01*
X0284494Y0256758D01*
X0284442Y0256820D01*
X0284394Y0256884D01*
X0284349Y0256951D01*
X0284307Y0257020D01*
X0284268Y0257091D01*
X0284233Y0257163D01*
X0284201Y0257237D01*
X0284173Y0257313D01*
X0284149Y0257390D01*
X0284128Y0257468D01*
X0284111Y0257546D01*
X0284097Y0257626D01*
X0284088Y0257706D01*
X0284082Y0257786D01*
X0284080Y0257867D01*
X0284079Y0257867D02*
X0284079Y0259561D01*
X0284079Y0257528D02*
X0281368Y0256173D01*
X0282385Y0253794D02*
X0284079Y0253794D01*
X0283401Y0253794D02*
X0283401Y0251083D01*
X0284079Y0251083D01*
X0284079Y0251082D02*
X0284151Y0251084D01*
X0284223Y0251090D01*
X0284295Y0251099D01*
X0284366Y0251113D01*
X0284436Y0251130D01*
X0284505Y0251151D01*
X0284573Y0251175D01*
X0284639Y0251203D01*
X0284704Y0251235D01*
X0284767Y0251270D01*
X0284829Y0251308D01*
X0284888Y0251350D01*
X0284944Y0251394D01*
X0284999Y0251442D01*
X0285051Y0251492D01*
X0285099Y0251545D01*
X0285146Y0251601D01*
X0285189Y0251659D01*
X0285229Y0251719D01*
X0285265Y0251781D01*
X0285298Y0251845D01*
X0285328Y0251911D01*
X0285355Y0251978D01*
X0285377Y0252047D01*
X0285396Y0252116D01*
X0285412Y0252187D01*
X0285423Y0252258D01*
X0285431Y0252330D01*
X0285435Y0252402D01*
X0285435Y0252474D01*
X0285431Y0252546D01*
X0285423Y0252618D01*
X0285412Y0252689D01*
X0285396Y0252760D01*
X0285377Y0252829D01*
X0285355Y0252898D01*
X0285328Y0252965D01*
X0285298Y0253031D01*
X0285265Y0253095D01*
X0285229Y0253157D01*
X0285189Y0253217D01*
X0285146Y0253275D01*
X0285099Y0253331D01*
X0285051Y0253384D01*
X0284999Y0253434D01*
X0284944Y0253482D01*
X0284888Y0253526D01*
X0284829Y0253568D01*
X0284767Y0253606D01*
X0284704Y0253641D01*
X0284639Y0253673D01*
X0284573Y0253701D01*
X0284505Y0253725D01*
X0284436Y0253746D01*
X0284366Y0253763D01*
X0284295Y0253777D01*
X0284223Y0253786D01*
X0284151Y0253792D01*
X0284079Y0253794D01*
X0282385Y0253794D02*
X0282324Y0253792D01*
X0282262Y0253787D01*
X0282202Y0253777D01*
X0282142Y0253764D01*
X0282082Y0253748D01*
X0282024Y0253728D01*
X0281968Y0253704D01*
X0281912Y0253678D01*
X0281859Y0253647D01*
X0281807Y0253614D01*
X0281758Y0253578D01*
X0281711Y0253538D01*
X0281666Y0253496D01*
X0281624Y0253451D01*
X0281584Y0253404D01*
X0281548Y0253355D01*
X0281515Y0253303D01*
X0281484Y0253250D01*
X0281458Y0253194D01*
X0281434Y0253138D01*
X0281414Y0253080D01*
X0281398Y0253020D01*
X0281385Y0252960D01*
X0281375Y0252900D01*
X0281370Y0252838D01*
X0281368Y0252777D01*
X0281368Y0251083D01*
X0282385Y0248631D02*
X0287468Y0248631D01*
X0284079Y0245600D02*
X0282724Y0245600D01*
X0282652Y0245598D01*
X0282580Y0245592D01*
X0282508Y0245583D01*
X0282437Y0245569D01*
X0282367Y0245552D01*
X0282298Y0245531D01*
X0282230Y0245507D01*
X0282164Y0245479D01*
X0282099Y0245447D01*
X0282036Y0245412D01*
X0281974Y0245374D01*
X0281915Y0245332D01*
X0281859Y0245288D01*
X0281804Y0245240D01*
X0281752Y0245190D01*
X0281704Y0245137D01*
X0281657Y0245081D01*
X0281614Y0245023D01*
X0281574Y0244963D01*
X0281538Y0244901D01*
X0281505Y0244837D01*
X0281475Y0244771D01*
X0281448Y0244704D01*
X0281426Y0244635D01*
X0281407Y0244566D01*
X0281391Y0244495D01*
X0281380Y0244424D01*
X0281372Y0244352D01*
X0281368Y0244280D01*
X0281368Y0244208D01*
X0281372Y0244136D01*
X0281380Y0244064D01*
X0281391Y0243993D01*
X0281407Y0243922D01*
X0281426Y0243853D01*
X0281448Y0243784D01*
X0281475Y0243717D01*
X0281505Y0243651D01*
X0281538Y0243587D01*
X0281574Y0243525D01*
X0281614Y0243465D01*
X0281657Y0243407D01*
X0281704Y0243351D01*
X0281752Y0243298D01*
X0281804Y0243248D01*
X0281859Y0243200D01*
X0281915Y0243156D01*
X0281974Y0243114D01*
X0282036Y0243076D01*
X0282099Y0243041D01*
X0282164Y0243009D01*
X0282230Y0242981D01*
X0282298Y0242957D01*
X0282367Y0242936D01*
X0282437Y0242919D01*
X0282508Y0242905D01*
X0282580Y0242896D01*
X0282652Y0242890D01*
X0282724Y0242888D01*
X0282724Y0242889D02*
X0284079Y0242889D01*
X0284079Y0242888D02*
X0284151Y0242890D01*
X0284223Y0242896D01*
X0284295Y0242905D01*
X0284366Y0242919D01*
X0284436Y0242936D01*
X0284505Y0242957D01*
X0284573Y0242981D01*
X0284639Y0243009D01*
X0284704Y0243041D01*
X0284767Y0243076D01*
X0284829Y0243114D01*
X0284888Y0243156D01*
X0284944Y0243200D01*
X0284999Y0243248D01*
X0285051Y0243298D01*
X0285099Y0243351D01*
X0285146Y0243407D01*
X0285189Y0243465D01*
X0285229Y0243525D01*
X0285265Y0243587D01*
X0285298Y0243651D01*
X0285328Y0243717D01*
X0285355Y0243784D01*
X0285377Y0243853D01*
X0285396Y0243922D01*
X0285412Y0243993D01*
X0285423Y0244064D01*
X0285431Y0244136D01*
X0285435Y0244208D01*
X0285435Y0244280D01*
X0285431Y0244352D01*
X0285423Y0244424D01*
X0285412Y0244495D01*
X0285396Y0244566D01*
X0285377Y0244635D01*
X0285355Y0244704D01*
X0285328Y0244771D01*
X0285298Y0244837D01*
X0285265Y0244901D01*
X0285229Y0244963D01*
X0285189Y0245023D01*
X0285146Y0245081D01*
X0285099Y0245137D01*
X0285051Y0245190D01*
X0284999Y0245240D01*
X0284944Y0245288D01*
X0284888Y0245332D01*
X0284829Y0245374D01*
X0284767Y0245412D01*
X0284704Y0245447D01*
X0284639Y0245479D01*
X0284573Y0245507D01*
X0284505Y0245531D01*
X0284436Y0245552D01*
X0284366Y0245569D01*
X0284295Y0245583D01*
X0284223Y0245592D01*
X0284151Y0245598D01*
X0284079Y0245600D01*
X0281368Y0247615D02*
X0281370Y0247676D01*
X0281375Y0247738D01*
X0281385Y0247798D01*
X0281398Y0247858D01*
X0281414Y0247918D01*
X0281434Y0247976D01*
X0281458Y0248032D01*
X0281484Y0248088D01*
X0281515Y0248141D01*
X0281548Y0248193D01*
X0281584Y0248242D01*
X0281624Y0248289D01*
X0281666Y0248334D01*
X0281711Y0248376D01*
X0281758Y0248416D01*
X0281807Y0248452D01*
X0281859Y0248485D01*
X0281912Y0248516D01*
X0281968Y0248542D01*
X0282024Y0248566D01*
X0282082Y0248586D01*
X0282142Y0248602D01*
X0282202Y0248615D01*
X0282262Y0248625D01*
X0282324Y0248630D01*
X0282385Y0248632D01*
X0282385Y0240521D02*
X0284418Y0240521D01*
X0284418Y0240522D02*
X0284479Y0240520D01*
X0284541Y0240515D01*
X0284601Y0240505D01*
X0284661Y0240492D01*
X0284721Y0240476D01*
X0284779Y0240456D01*
X0284835Y0240432D01*
X0284891Y0240406D01*
X0284944Y0240375D01*
X0284996Y0240342D01*
X0285045Y0240306D01*
X0285092Y0240266D01*
X0285137Y0240224D01*
X0285179Y0240179D01*
X0285219Y0240132D01*
X0285255Y0240083D01*
X0285288Y0240031D01*
X0285319Y0239978D01*
X0285345Y0239922D01*
X0285369Y0239866D01*
X0285389Y0239808D01*
X0285405Y0239748D01*
X0285418Y0239688D01*
X0285428Y0239628D01*
X0285433Y0239566D01*
X0285435Y0239505D01*
X0285435Y0238149D01*
X0285435Y0235729D02*
X0285435Y0234373D01*
X0285433Y0234312D01*
X0285428Y0234250D01*
X0285418Y0234190D01*
X0285405Y0234130D01*
X0285389Y0234070D01*
X0285369Y0234012D01*
X0285345Y0233956D01*
X0285319Y0233900D01*
X0285288Y0233847D01*
X0285255Y0233795D01*
X0285219Y0233746D01*
X0285179Y0233699D01*
X0285137Y0233654D01*
X0285092Y0233612D01*
X0285045Y0233572D01*
X0284996Y0233536D01*
X0284944Y0233503D01*
X0284891Y0233472D01*
X0284835Y0233446D01*
X0284779Y0233422D01*
X0284721Y0233402D01*
X0284661Y0233386D01*
X0284601Y0233373D01*
X0284541Y0233363D01*
X0284479Y0233358D01*
X0284418Y0233356D01*
X0281368Y0233356D01*
X0281368Y0234881D01*
X0281370Y0234949D01*
X0281376Y0235016D01*
X0281385Y0235083D01*
X0281399Y0235150D01*
X0281416Y0235215D01*
X0281437Y0235280D01*
X0281462Y0235343D01*
X0281490Y0235404D01*
X0281521Y0235464D01*
X0281556Y0235522D01*
X0281595Y0235578D01*
X0281636Y0235632D01*
X0281680Y0235683D01*
X0281727Y0235732D01*
X0281777Y0235777D01*
X0281830Y0235820D01*
X0281885Y0235860D01*
X0281942Y0235897D01*
X0282001Y0235930D01*
X0282061Y0235960D01*
X0282124Y0235986D01*
X0282188Y0236009D01*
X0282252Y0236028D01*
X0282318Y0236043D01*
X0282385Y0236055D01*
X0282453Y0236063D01*
X0282520Y0236067D01*
X0282588Y0236067D01*
X0282655Y0236063D01*
X0282723Y0236055D01*
X0282790Y0236043D01*
X0282856Y0236028D01*
X0282920Y0236009D01*
X0282984Y0235986D01*
X0283047Y0235960D01*
X0283107Y0235930D01*
X0283166Y0235897D01*
X0283223Y0235860D01*
X0283278Y0235820D01*
X0283331Y0235777D01*
X0283381Y0235732D01*
X0283428Y0235683D01*
X0283472Y0235632D01*
X0283513Y0235578D01*
X0283552Y0235522D01*
X0283587Y0235464D01*
X0283618Y0235404D01*
X0283646Y0235343D01*
X0283671Y0235280D01*
X0283692Y0235215D01*
X0283709Y0235150D01*
X0283723Y0235083D01*
X0283732Y0235016D01*
X0283738Y0234949D01*
X0283740Y0234881D01*
X0283740Y0233356D01*
X0285435Y0231257D02*
X0285435Y0229224D01*
X0285435Y0227077D02*
X0281368Y0227077D01*
X0281368Y0229224D02*
X0281368Y0229563D01*
X0281370Y0229624D01*
X0281375Y0229686D01*
X0281385Y0229746D01*
X0281398Y0229806D01*
X0281414Y0229866D01*
X0281434Y0229924D01*
X0281458Y0229980D01*
X0281484Y0230036D01*
X0281515Y0230089D01*
X0281548Y0230141D01*
X0281584Y0230190D01*
X0281624Y0230237D01*
X0281666Y0230282D01*
X0281711Y0230324D01*
X0281758Y0230364D01*
X0281807Y0230400D01*
X0281859Y0230433D01*
X0281912Y0230464D01*
X0281968Y0230490D01*
X0282024Y0230514D01*
X0282082Y0230534D01*
X0282142Y0230550D01*
X0282202Y0230563D01*
X0282262Y0230573D01*
X0282324Y0230578D01*
X0282385Y0230580D01*
X0282385Y0230579D02*
X0287468Y0230579D01*
X0287468Y0227246D02*
X0287468Y0226907D01*
X0287129Y0226907D01*
X0287129Y0227246D01*
X0287468Y0227246D01*
X0284079Y0224725D02*
X0282724Y0224725D01*
X0282724Y0224726D02*
X0282652Y0224724D01*
X0282580Y0224718D01*
X0282508Y0224709D01*
X0282437Y0224695D01*
X0282367Y0224678D01*
X0282298Y0224657D01*
X0282230Y0224633D01*
X0282164Y0224605D01*
X0282099Y0224573D01*
X0282036Y0224538D01*
X0281974Y0224500D01*
X0281915Y0224458D01*
X0281859Y0224414D01*
X0281804Y0224366D01*
X0281752Y0224316D01*
X0281704Y0224263D01*
X0281657Y0224207D01*
X0281614Y0224149D01*
X0281574Y0224089D01*
X0281538Y0224027D01*
X0281505Y0223963D01*
X0281475Y0223897D01*
X0281448Y0223830D01*
X0281426Y0223761D01*
X0281407Y0223692D01*
X0281391Y0223621D01*
X0281380Y0223550D01*
X0281372Y0223478D01*
X0281368Y0223406D01*
X0281368Y0223334D01*
X0281372Y0223262D01*
X0281380Y0223190D01*
X0281391Y0223119D01*
X0281407Y0223048D01*
X0281426Y0222979D01*
X0281448Y0222910D01*
X0281475Y0222843D01*
X0281505Y0222777D01*
X0281538Y0222713D01*
X0281574Y0222651D01*
X0281614Y0222591D01*
X0281657Y0222533D01*
X0281704Y0222477D01*
X0281752Y0222424D01*
X0281804Y0222374D01*
X0281859Y0222326D01*
X0281915Y0222282D01*
X0281974Y0222240D01*
X0282036Y0222202D01*
X0282099Y0222167D01*
X0282164Y0222135D01*
X0282230Y0222107D01*
X0282298Y0222083D01*
X0282367Y0222062D01*
X0282437Y0222045D01*
X0282508Y0222031D01*
X0282580Y0222022D01*
X0282652Y0222016D01*
X0282724Y0222014D01*
X0284079Y0222014D01*
X0284151Y0222016D01*
X0284223Y0222022D01*
X0284295Y0222031D01*
X0284366Y0222045D01*
X0284436Y0222062D01*
X0284505Y0222083D01*
X0284573Y0222107D01*
X0284639Y0222135D01*
X0284704Y0222167D01*
X0284767Y0222202D01*
X0284829Y0222240D01*
X0284888Y0222282D01*
X0284944Y0222326D01*
X0284999Y0222374D01*
X0285051Y0222424D01*
X0285099Y0222477D01*
X0285146Y0222533D01*
X0285189Y0222591D01*
X0285229Y0222651D01*
X0285265Y0222713D01*
X0285298Y0222777D01*
X0285328Y0222843D01*
X0285355Y0222910D01*
X0285377Y0222979D01*
X0285396Y0223048D01*
X0285412Y0223119D01*
X0285423Y0223190D01*
X0285431Y0223262D01*
X0285435Y0223334D01*
X0285435Y0223406D01*
X0285431Y0223478D01*
X0285423Y0223550D01*
X0285412Y0223621D01*
X0285396Y0223692D01*
X0285377Y0223761D01*
X0285355Y0223830D01*
X0285328Y0223897D01*
X0285298Y0223963D01*
X0285265Y0224027D01*
X0285229Y0224089D01*
X0285189Y0224149D01*
X0285146Y0224207D01*
X0285099Y0224263D01*
X0285051Y0224316D01*
X0284999Y0224366D01*
X0284944Y0224414D01*
X0284888Y0224458D01*
X0284829Y0224500D01*
X0284767Y0224538D01*
X0284704Y0224573D01*
X0284639Y0224605D01*
X0284573Y0224633D01*
X0284505Y0224657D01*
X0284436Y0224678D01*
X0284366Y0224695D01*
X0284295Y0224709D01*
X0284223Y0224718D01*
X0284151Y0224724D01*
X0284079Y0224726D01*
X0285435Y0219458D02*
X0281368Y0219458D01*
X0281368Y0216747D02*
X0284418Y0216747D01*
X0284479Y0216749D01*
X0284541Y0216754D01*
X0284601Y0216764D01*
X0284661Y0216777D01*
X0284721Y0216793D01*
X0284779Y0216813D01*
X0284835Y0216837D01*
X0284891Y0216863D01*
X0284944Y0216894D01*
X0284996Y0216927D01*
X0285045Y0216963D01*
X0285092Y0217003D01*
X0285137Y0217045D01*
X0285179Y0217090D01*
X0285219Y0217137D01*
X0285255Y0217186D01*
X0285288Y0217238D01*
X0285319Y0217291D01*
X0285345Y0217347D01*
X0285369Y0217403D01*
X0285389Y0217461D01*
X0285405Y0217521D01*
X0285418Y0217581D01*
X0285428Y0217641D01*
X0285433Y0217703D01*
X0285435Y0217764D01*
X0285435Y0219458D01*
X0284757Y0210812D02*
X0284757Y0208101D01*
X0287468Y0208101D02*
X0287468Y0210812D01*
X0281368Y0210812D01*
X0282385Y0205907D02*
X0287468Y0205907D01*
X0284079Y0202876D02*
X0282385Y0202876D01*
X0283401Y0202876D02*
X0283401Y0200164D01*
X0284079Y0200164D01*
X0284151Y0200166D01*
X0284223Y0200172D01*
X0284295Y0200181D01*
X0284366Y0200195D01*
X0284436Y0200212D01*
X0284505Y0200233D01*
X0284573Y0200257D01*
X0284639Y0200285D01*
X0284704Y0200317D01*
X0284767Y0200352D01*
X0284829Y0200390D01*
X0284888Y0200432D01*
X0284944Y0200476D01*
X0284999Y0200524D01*
X0285051Y0200574D01*
X0285099Y0200627D01*
X0285146Y0200683D01*
X0285189Y0200741D01*
X0285229Y0200801D01*
X0285265Y0200863D01*
X0285298Y0200927D01*
X0285328Y0200993D01*
X0285355Y0201060D01*
X0285377Y0201129D01*
X0285396Y0201198D01*
X0285412Y0201269D01*
X0285423Y0201340D01*
X0285431Y0201412D01*
X0285435Y0201484D01*
X0285435Y0201556D01*
X0285431Y0201628D01*
X0285423Y0201700D01*
X0285412Y0201771D01*
X0285396Y0201842D01*
X0285377Y0201911D01*
X0285355Y0201980D01*
X0285328Y0202047D01*
X0285298Y0202113D01*
X0285265Y0202177D01*
X0285229Y0202239D01*
X0285189Y0202299D01*
X0285146Y0202357D01*
X0285099Y0202413D01*
X0285051Y0202466D01*
X0284999Y0202516D01*
X0284944Y0202564D01*
X0284888Y0202608D01*
X0284829Y0202650D01*
X0284767Y0202688D01*
X0284704Y0202723D01*
X0284639Y0202755D01*
X0284573Y0202783D01*
X0284505Y0202807D01*
X0284436Y0202828D01*
X0284366Y0202845D01*
X0284295Y0202859D01*
X0284223Y0202868D01*
X0284151Y0202874D01*
X0284079Y0202876D01*
X0282385Y0202876D02*
X0282324Y0202874D01*
X0282262Y0202869D01*
X0282202Y0202859D01*
X0282142Y0202846D01*
X0282082Y0202830D01*
X0282024Y0202810D01*
X0281968Y0202786D01*
X0281912Y0202760D01*
X0281859Y0202729D01*
X0281807Y0202696D01*
X0281758Y0202660D01*
X0281711Y0202620D01*
X0281666Y0202578D01*
X0281624Y0202533D01*
X0281584Y0202486D01*
X0281548Y0202437D01*
X0281515Y0202385D01*
X0281484Y0202332D01*
X0281458Y0202276D01*
X0281434Y0202220D01*
X0281414Y0202162D01*
X0281398Y0202102D01*
X0281385Y0202042D01*
X0281375Y0201982D01*
X0281370Y0201920D01*
X0281368Y0201859D01*
X0281368Y0200164D01*
X0281368Y0197998D02*
X0285435Y0195287D01*
X0285435Y0197998D02*
X0281368Y0195287D01*
X0281368Y0204890D02*
X0281370Y0204951D01*
X0281375Y0205013D01*
X0281385Y0205073D01*
X0281398Y0205133D01*
X0281414Y0205193D01*
X0281434Y0205251D01*
X0281458Y0205307D01*
X0281484Y0205363D01*
X0281515Y0205416D01*
X0281548Y0205468D01*
X0281584Y0205517D01*
X0281624Y0205564D01*
X0281666Y0205609D01*
X0281711Y0205651D01*
X0281758Y0205691D01*
X0281807Y0205727D01*
X0281859Y0205760D01*
X0281912Y0205791D01*
X0281968Y0205817D01*
X0282024Y0205841D01*
X0282082Y0205861D01*
X0282142Y0205877D01*
X0282202Y0205890D01*
X0282262Y0205900D01*
X0282324Y0205905D01*
X0282385Y0205907D01*
X0281368Y0238149D02*
X0281368Y0239505D01*
X0281370Y0239566D01*
X0281375Y0239628D01*
X0281385Y0239688D01*
X0281398Y0239748D01*
X0281414Y0239808D01*
X0281434Y0239866D01*
X0281458Y0239922D01*
X0281484Y0239978D01*
X0281515Y0240031D01*
X0281548Y0240083D01*
X0281584Y0240132D01*
X0281624Y0240179D01*
X0281666Y0240224D01*
X0281711Y0240266D01*
X0281758Y0240306D01*
X0281807Y0240342D01*
X0281859Y0240375D01*
X0281912Y0240406D01*
X0281968Y0240432D01*
X0282024Y0240456D01*
X0282082Y0240476D01*
X0282142Y0240492D01*
X0282202Y0240505D01*
X0282262Y0240515D01*
X0282324Y0240520D01*
X0282385Y0240522D01*
X0287468Y0278163D02*
X0287468Y0279519D01*
X0287469Y0279519D02*
X0287467Y0279592D01*
X0287461Y0279666D01*
X0287451Y0279738D01*
X0287437Y0279811D01*
X0287420Y0279882D01*
X0287398Y0279952D01*
X0287373Y0280021D01*
X0287344Y0280088D01*
X0287311Y0280154D01*
X0287275Y0280218D01*
X0287235Y0280280D01*
X0287192Y0280340D01*
X0287146Y0280397D01*
X0287097Y0280452D01*
X0287046Y0280503D01*
X0286991Y0280552D01*
X0286934Y0280599D01*
X0286874Y0280641D01*
X0286812Y0280681D01*
X0286748Y0280717D01*
X0286682Y0280750D01*
X0286615Y0280779D01*
X0286546Y0280804D01*
X0286476Y0280826D01*
X0286404Y0280843D01*
X0286332Y0280857D01*
X0286260Y0280867D01*
X0286186Y0280873D01*
X0286113Y0280875D01*
M02*
