G75*
%MOIN*%
%OFA0B0*%
%FSLAX25Y25*%
%IPPOS*%
%LPD*%
%AMOC8*
5,1,8,0,0,1.08239X$1,22.5*
%
%ADD10C,0.06299*%
%ADD11C,0.07874*%
%ADD12C,0.04000*%
%ADD13C,0.03937*%
%ADD14C,0.00600*%
%ADD15C,0.03200*%
D10*
X0035252Y0352181D03*
X0105134Y0356315D03*
D11*
X0103409Y0367521D03*
X0113212Y0367521D03*
X0123015Y0367521D03*
X0132818Y0367521D03*
X0142621Y0367521D03*
X0152424Y0367521D03*
X0162227Y0367521D03*
X0172031Y0367521D03*
X0181834Y0367521D03*
X0191637Y0367521D03*
X0201440Y0367521D03*
X0211243Y0367521D03*
X0221046Y0367521D03*
X0230850Y0367521D03*
X0240653Y0367521D03*
X0250456Y0367521D03*
X0250456Y0336021D03*
X0240653Y0336021D03*
X0230850Y0336021D03*
X0221046Y0336021D03*
X0211243Y0336021D03*
X0201440Y0336021D03*
X0191637Y0336021D03*
X0181834Y0336021D03*
X0172031Y0336021D03*
X0162227Y0336021D03*
X0152424Y0336021D03*
X0142621Y0336021D03*
X0132818Y0336021D03*
X0123015Y0336021D03*
X0113212Y0336021D03*
X0103409Y0336021D03*
X0093605Y0336021D03*
X0083802Y0336021D03*
X0073999Y0336021D03*
X0064196Y0336021D03*
X0054393Y0336021D03*
X0044590Y0336021D03*
X0034787Y0336021D03*
X0024983Y0336021D03*
X0015180Y0336021D03*
X0015180Y0367521D03*
X0024983Y0367521D03*
X0034787Y0367521D03*
X0044590Y0367521D03*
X0054393Y0367521D03*
X0064196Y0367521D03*
X0073999Y0367521D03*
X0083802Y0367521D03*
X0093605Y0367521D03*
X0093605Y0047087D03*
X0103409Y0047087D03*
X0113212Y0047087D03*
X0123015Y0047087D03*
X0132818Y0047087D03*
X0132818Y0032914D03*
X0123015Y0032914D03*
X0113212Y0032914D03*
X0103409Y0032914D03*
X0093605Y0032914D03*
X0083802Y0032914D03*
X0073999Y0032914D03*
X0064196Y0032914D03*
X0054393Y0032914D03*
X0044590Y0032914D03*
X0034787Y0032914D03*
X0024983Y0032914D03*
X0015180Y0032914D03*
X0015180Y0047087D03*
X0024983Y0047087D03*
X0034787Y0047087D03*
X0044590Y0047087D03*
X0054393Y0047087D03*
X0064196Y0047087D03*
X0073999Y0047087D03*
X0083802Y0047087D03*
X0152424Y0047087D03*
X0162227Y0047087D03*
X0172031Y0047087D03*
X0181834Y0047087D03*
X0191637Y0047087D03*
X0201440Y0047087D03*
X0211243Y0047087D03*
X0221046Y0047087D03*
X0230850Y0047087D03*
X0240653Y0047087D03*
X0250456Y0047087D03*
X0250456Y0032914D03*
X0240653Y0032914D03*
X0230850Y0032914D03*
X0221046Y0032914D03*
X0211243Y0032914D03*
X0201440Y0032914D03*
X0191637Y0032914D03*
X0181834Y0032914D03*
X0172031Y0032914D03*
X0162227Y0032914D03*
X0152424Y0032914D03*
D12*
X0015140Y0032841D02*
X0015140Y0047014D01*
X0015175Y0040101D02*
X0250391Y0039972D01*
X0250409Y0032299D01*
X0250391Y0039972D02*
X0250409Y0047260D01*
X0250409Y0047063D02*
X0250409Y0079740D01*
X0290567Y0119898D01*
X0274031Y0134661D02*
X0229346Y0089976D01*
X0225213Y0085843D01*
X0221276Y0081906D01*
X0221105Y0047260D02*
X0221105Y0032299D01*
X0230838Y0032470D02*
X0230838Y0047430D01*
X0274031Y0134661D02*
X0274031Y0340173D01*
X0270882Y0343323D01*
X0095291Y0343323D01*
X0093717Y0341748D01*
X0093717Y0335449D01*
X0078756Y0351787D02*
X0064189Y0366354D01*
X0064189Y0367732D01*
X0035252Y0351984D02*
X0025606Y0351984D01*
X0025160Y0367547D02*
X0025160Y0336051D01*
X0015146Y0335897D02*
X0015146Y0367393D01*
X0142535Y0342929D02*
X0142535Y0335843D01*
X0064240Y0047055D02*
X0064240Y0032881D01*
X0024982Y0032902D02*
X0024982Y0047075D01*
D13*
X0221276Y0081906D03*
X0225213Y0085843D03*
X0229346Y0089976D03*
X0282299Y0111630D03*
X0286433Y0115961D03*
X0290567Y0119898D03*
X0078559Y0351787D03*
D14*
X0073244Y0348441D02*
X0056315Y0365370D01*
X0046276Y0365173D02*
X0063992Y0347457D01*
X0273047Y0347457D01*
X0278362Y0342142D01*
X0278362Y0132496D01*
X0223441Y0077575D01*
X0073441Y0077575D01*
X0045685Y0049819D01*
X0036236Y0049622D02*
X0065370Y0078756D01*
X0222850Y0078756D01*
X0277181Y0133087D01*
X0277181Y0341748D01*
X0272457Y0346472D01*
X0055134Y0346472D01*
X0036236Y0365370D01*
X0073244Y0348441D02*
X0273441Y0348441D01*
X0279346Y0342535D01*
X0279346Y0132102D01*
X0223638Y0076394D01*
X0082299Y0076394D01*
X0055528Y0049622D01*
X0075409Y0049622D02*
X0101197Y0075409D01*
X0224228Y0075409D01*
X0280331Y0131512D01*
X0280331Y0342929D01*
X0273835Y0349425D01*
X0091945Y0349425D01*
X0076000Y0365370D01*
X0086039Y0365567D02*
X0101197Y0350409D01*
X0274228Y0350409D01*
X0281315Y0343323D01*
X0281315Y0130921D01*
X0224819Y0074425D01*
X0109858Y0074425D01*
X0085055Y0049622D01*
X0104937Y0049622D02*
X0128756Y0073441D01*
X0225213Y0073441D01*
X0282299Y0130528D01*
X0282299Y0343913D01*
X0274819Y0351394D01*
X0118913Y0351394D01*
X0105134Y0365173D01*
X0115173Y0364976D02*
X0127772Y0352378D01*
X0275409Y0352378D01*
X0283283Y0344504D01*
X0283283Y0130134D01*
X0225606Y0072457D01*
X0137614Y0072457D01*
X0114780Y0049622D01*
X0124622Y0049819D02*
X0146276Y0071472D01*
X0226000Y0071472D01*
X0284268Y0129740D01*
X0284268Y0345094D01*
X0276000Y0353362D01*
X0136630Y0353362D01*
X0124819Y0365173D01*
X0134661Y0364976D02*
X0145291Y0354346D01*
X0276394Y0354346D01*
X0285252Y0345488D01*
X0285252Y0129150D01*
X0226591Y0070488D01*
X0154937Y0070488D01*
X0134268Y0049819D01*
X0154150Y0049425D02*
X0174228Y0069504D01*
X0226984Y0069504D01*
X0286236Y0128756D01*
X0286236Y0346079D01*
X0276984Y0355331D01*
X0163795Y0355331D01*
X0153756Y0365370D01*
X0164189Y0365173D02*
X0173047Y0356315D01*
X0277575Y0356315D01*
X0287220Y0346669D01*
X0287220Y0128362D01*
X0227378Y0068520D01*
X0183087Y0068520D01*
X0163992Y0049425D01*
X0183087Y0050213D02*
X0200409Y0067535D01*
X0227772Y0067535D01*
X0288205Y0127969D01*
X0288205Y0347260D01*
X0278165Y0357299D01*
X0191551Y0357299D01*
X0183480Y0365370D01*
X0193520Y0365173D02*
X0200409Y0358283D01*
X0278756Y0358283D01*
X0289189Y0347850D01*
X0289189Y0127575D01*
X0228165Y0066551D01*
X0210055Y0066551D01*
X0192929Y0049425D01*
X0202969Y0049622D02*
X0218913Y0065567D01*
X0228559Y0065567D01*
X0290173Y0127181D01*
X0290173Y0348244D01*
X0279150Y0359268D01*
X0209465Y0359268D01*
X0203362Y0365370D01*
X0213205Y0365173D02*
X0218126Y0360252D01*
X0279543Y0360252D01*
X0291157Y0348638D01*
X0291157Y0126591D01*
X0228559Y0063992D01*
X0227772Y0063992D01*
X0213205Y0049425D01*
X0240764Y0050016D02*
X0240764Y0074819D01*
X0292142Y0126197D01*
X0292142Y0349031D01*
X0279937Y0361236D01*
X0246669Y0361236D01*
X0242535Y0365370D01*
D15*
X0104543Y0355331D02*
X0094701Y0365173D01*
M02*
