G75*
%MOIN*%
%OFA0B0*%
%FSLAX25Y25*%
%IPPOS*%
%LPD*%
%AMOC8*
5,1,8,0,0,1.08239X$1,22.5*
%
%ADD10C,0.07099*%
%ADD11C,0.08674*%
%ADD12C,0.04737*%
D10*
X0035252Y0352181D03*
X0105134Y0356315D03*
D11*
X0015180Y0032914D03*
X0024983Y0032914D03*
X0034787Y0032914D03*
X0044590Y0032914D03*
X0054393Y0032914D03*
X0064196Y0032914D03*
X0073999Y0032914D03*
X0083802Y0032914D03*
X0093605Y0032914D03*
X0103409Y0032914D03*
X0113212Y0032914D03*
X0123015Y0032914D03*
X0132818Y0032914D03*
X0132818Y0047087D03*
X0123015Y0047087D03*
X0113212Y0047087D03*
X0103409Y0047087D03*
X0093605Y0047087D03*
X0083802Y0047087D03*
X0073999Y0047087D03*
X0064196Y0047087D03*
X0054393Y0047087D03*
X0044590Y0047087D03*
X0034787Y0047087D03*
X0024983Y0047087D03*
X0015180Y0047087D03*
X0152424Y0047087D03*
X0162227Y0047087D03*
X0172031Y0047087D03*
X0181834Y0047087D03*
X0191637Y0047087D03*
X0201440Y0047087D03*
X0211243Y0047087D03*
X0221046Y0047087D03*
X0230850Y0047087D03*
X0240653Y0047087D03*
X0250456Y0047087D03*
X0250456Y0032914D03*
X0240653Y0032914D03*
X0230850Y0032914D03*
X0221046Y0032914D03*
X0211243Y0032914D03*
X0201440Y0032914D03*
X0191637Y0032914D03*
X0181834Y0032914D03*
X0172031Y0032914D03*
X0162227Y0032914D03*
X0152424Y0032914D03*
X0152424Y0336021D03*
X0142621Y0336021D03*
X0132818Y0336021D03*
X0123015Y0336021D03*
X0113212Y0336021D03*
X0103409Y0336021D03*
X0093605Y0336021D03*
X0083802Y0336021D03*
X0073999Y0336021D03*
X0064196Y0336021D03*
X0054393Y0336021D03*
X0044590Y0336021D03*
X0034787Y0336021D03*
X0024983Y0336021D03*
X0015180Y0336021D03*
X0015180Y0367521D03*
X0024983Y0367521D03*
X0034787Y0367521D03*
X0044590Y0367521D03*
X0054393Y0367521D03*
X0064196Y0367521D03*
X0073999Y0367521D03*
X0083802Y0367521D03*
X0093605Y0367521D03*
X0103409Y0367521D03*
X0113212Y0367521D03*
X0123015Y0367521D03*
X0132818Y0367521D03*
X0142621Y0367521D03*
X0152424Y0367521D03*
X0162227Y0367521D03*
X0172031Y0367521D03*
X0181834Y0367521D03*
X0191637Y0367521D03*
X0201440Y0367521D03*
X0211243Y0367521D03*
X0221046Y0367521D03*
X0230850Y0367521D03*
X0240653Y0367521D03*
X0250456Y0367521D03*
X0250456Y0336021D03*
X0240653Y0336021D03*
X0230850Y0336021D03*
X0221046Y0336021D03*
X0211243Y0336021D03*
X0201440Y0336021D03*
X0191637Y0336021D03*
X0181834Y0336021D03*
X0172031Y0336021D03*
X0162227Y0336021D03*
D12*
X0078559Y0351787D03*
X0282299Y0111630D03*
X0286433Y0115961D03*
X0290567Y0119898D03*
X0229346Y0089976D03*
X0225213Y0085843D03*
X0221276Y0081906D03*
M02*
