%
M48
M72
T01C0.0138
T02C0.0394
%
T01
X22128Y8191
X22521Y8584
X22935Y8998
X28230Y11163
X28643Y11596
X29057Y11990
X7856Y35179
T02
X1518Y3291
X2498Y3291
X3479Y3291
X4459Y3291
X5439Y3291
X6420Y3291
X7400Y3291
X8380Y3291
X9361Y3291
X10341Y3291
X11321Y3291
X12301Y3291
X13282Y3291
X13282Y4709
X12301Y4709
X11321Y4709
X10341Y4709
X9361Y4709
X8380Y4709
X7400Y4709
X6420Y4709
X5439Y4709
X4459Y4709
X3479Y4709
X2498Y4709
X1518Y4709
X15242Y4709
X16223Y4709
X17203Y4709
X18183Y4709
X19164Y4709
X20144Y4709
X21124Y4709
X22105Y4709
X23085Y4709
X24065Y4709
X25046Y4709
X25046Y3291
X24065Y3291
X23085Y3291
X22105Y3291
X21124Y3291
X20144Y3291
X19164Y3291
X18183Y3291
X17203Y3291
X16223Y3291
X15242Y3291
X15242Y33602
X14262Y33602
X13282Y33602
X12301Y33602
X11321Y33602
X10341Y33602
X9361Y33602
X8380Y33602
X7400Y33602
X6420Y33602
X5439Y33602
X4459Y33602
X3479Y33602
X2498Y33602
X1518Y33602
X1518Y36752
X2498Y36752
X3479Y36752
X4459Y36752
X5439Y36752
X6420Y36752
X7400Y36752
X8380Y36752
X9361Y36752
X10341Y36752
X11321Y36752
X12301Y36752
X13282Y36752
X14262Y36752
X15242Y36752
X16223Y36752
X17203Y36752
X18183Y36752
X19164Y36752
X20144Y36752
X21124Y36752
X22105Y36752
X23085Y36752
X24065Y36752
X25046Y36752
X25046Y33602
X24065Y33602
X23085Y33602
X22105Y33602
X21124Y33602
X20144Y33602
X19164Y33602
X18183Y33602
X17203Y33602
X16223Y33602
M30
